<?xml version="1.0" encoding="UTF-8"?>
<svg width="230px" height="230px" viewBox="0 0 230 230" version="1.1" xmlns="http://www.w3.org/2000/svg" xmlns:xlink="http://www.w3.org/1999/xlink">
    <defs>
        <ellipse id="path-1" cx="100.085501" cy="99.9898477" rx="100.085501" ry="99.9898477"></ellipse>
        <linearGradient x1="50%" y1="0%" x2="54.330541%" y2="77.7724508%" id="linearGradient-3">
            <stop stop-color="#FFFFFF" offset="0%"></stop>
            <stop stop-color="#E3E3E3" stop-opacity="0" offset="100%"></stop>
        </linearGradient>
    </defs>
    <g id="Page-1" stroke="none" stroke-width="1" fill="none" fill-rule="evenodd">
        <g id="Artboard">
            <g id="Group-7" transform="translate(3.000000, 15.000000)">
                <g id="Group-4">
                    <g id="Group">
                        <mask id="mask-2" fill="white">
                            <use xlink:href="#path-1"></use>
                        </mask>
                        <use id="Mask" fill="#69C8F2" xlink:href="#path-1"></use>
                        <g id="Group-6" mask="url(#mask-2)" fill="url(#linearGradient-3)">
                            <g transform="translate(57.413388, 23.253453)">
                                <path d="M8.05229959,12.4810696 C7.20294475,13.3864151 5.99516346,13.9520718 4.65513959,13.9520718 C2.08417699,13.9520718 0,11.8698867 0,9.30138118 C0,6.73287569 2.08417699,4.65069059 4.65513959,4.65069059 C5.24589829,4.65069059 5.81095501,4.76062865 6.33092973,4.96114326 C6.9058626,2.13054238 9.41073865,0 12.4137056,0 C14.7387144,0 16.765146,1.27713938 17.8284615,3.16751435 C18.0858906,3.12342798 18.3505397,3.10046039 18.6205584,3.10046039 C19.5792705,3.10046039 20.4702929,3.3899975 21.2107954,3.88632068 C21.7593632,3.39752229 22.4828061,3.10046039 23.275698,3.10046039 C24.989673,3.10046039 26.3791244,4.4885838 26.3791244,6.20092079 C26.3791244,7.91325778 24.989673,9.30138118 23.275698,9.30138118 C23.187771,9.30138118 23.1006981,9.29772807 23.014623,9.29056548 C22.3786378,11.1025294 20.6514785,12.4018416 18.6205584,12.4018416 C18.0150059,12.4018416 17.4364587,12.2863284 16.9057896,12.0761549 C16.3678004,14.0505614 14.5604513,15.502302 12.4137056,15.502302 C10.4165875,15.502302 8.71320301,14.2458806 8.05229959,12.4810696 Z" id="Combined-Shape"></path>
                                <path d="M82.3223067,22.9909437 C81.8226862,23.5341511 81.1122266,23.873545 80.3239773,23.873545 C78.8116464,23.873545 77.5856599,22.624234 77.5856599,21.0831307 C77.5856599,19.5420274 78.8116464,18.2927163 80.3239773,18.2927163 C80.6714824,18.2927163 81.0038687,18.3586792 81.3097362,18.4789879 C81.647932,16.7806274 83.1213885,15.502302 84.8878397,15.502302 C86.2554919,15.502302 87.4475105,16.2685856 88.0729902,17.4028106 C88.2244191,17.3763588 88.380095,17.3625782 88.5389295,17.3625782 C89.1028778,17.3625782 89.6270086,17.5363005 90.0625983,17.8340944 C90.3852853,17.5408153 90.81084,17.3625782 91.2772469,17.3625782 C92.2854676,17.3625782 93.1027919,18.1954522 93.1027919,19.2228544 C93.1027919,20.2502566 92.2854676,21.0831307 91.2772469,21.0831307 C91.2255252,21.0831307 91.1743058,21.0809388 91.1236734,21.0766413 C90.7495645,22.1638196 89.7335884,22.9434069 88.5389295,22.9434069 C88.1827222,22.9434069 87.8424003,22.874099 87.530242,22.7479949 C87.2137778,23.9326388 86.1506312,24.8036832 84.8878397,24.8036832 C83.7130643,24.8036832 82.7110734,24.0498303 82.3223067,22.9909437 Z" id="Combined-Shape-Copy-4"></path>
                                <path d="M72.1954173,51.801457 C71.9456071,52.0730607 71.5903773,52.2427576 71.1962526,52.2427576 C70.4400871,52.2427576 69.8270939,51.6181021 69.8270939,50.8475505 C69.8270939,50.0769988 70.4400871,49.4523433 71.1962526,49.4523433 C71.3700052,49.4523433 71.5361983,49.4853247 71.6891321,49.5454791 C71.85823,48.6962988 72.5949582,48.0571361 73.4781838,48.0571361 C74.1620099,48.0571361 74.7580192,48.4402779 75.0707591,49.0073904 C75.1464735,48.9941645 75.2243115,48.9872742 75.3037287,48.9872742 C75.5857029,48.9872742 75.8477683,49.0741354 76.0655631,49.2230323 C76.2269066,49.0763928 76.439684,48.9872742 76.6728874,48.9872742 C77.1769977,48.9872742 77.5856599,49.4037113 77.5856599,49.9174123 C77.5856599,50.4311134 77.1769977,50.8475505 76.6728874,50.8475505 C76.6470266,50.8475505 76.6214169,50.8464545 76.5961007,50.8443058 C76.4090462,51.3878949 75.9010582,51.7776886 75.3037287,51.7776886 C75.125625,51.7776886 74.9554641,51.7430346 74.799385,51.6799826 C74.6411528,52.2723045 74.1095796,52.7078267 73.4781838,52.7078267 C72.8907961,52.7078267 72.3898007,52.3309003 72.1954173,51.801457 Z" id="Combined-Shape-Copy-5"></path>
                            </g>
                        </g>
                        <path d="M100.085501,199.979695 C155.361197,199.979695 200.171003,155.212716 200.171003,99.9898477 C169.391245,121.839694 132.302776,120.62863 107.483711,115.737076 C82.6646462,110.845521 56.7873319,72.2041214 0,99.9898477 C0,155.212716 44.8098052,199.979695 100.085501,199.979695 Z" id="Mask-Copy" fill="#22BEA2" mask="url(#mask-2)"></path>
                        <g id="Group-2" mask="url(#mask-2)">
                            <g transform="translate(38.792830, 66.659898)">
                                <polygon id="Combined-Shape-Copy" stroke="none" fill="#F6F6F6" fill-rule="evenodd" points="27.4197748 58.9087475 0 51.1575965 0 7.75115099 27.4197748 0"></polygon>
                                <polygon id="Combined-Shape-Copy-3" stroke="none" fill="#FFFFFF" fill-rule="evenodd" transform="translate(35.697661, 29.454374) scale(-1, 1) translate(-35.697661, -29.454374) " points="43.9765518 58.9087475 27.4187694 51.1575965 27.4187694 7.75115099 43.9765518 0"></polygon>
                                <path d="M27.4197748,58.9087475 L0,51.1575965 L0,7.75115099 L27.4197748,0 L27.4197748,58.9087475 Z M5.71245309,12.2726557 L1.14249062,13.2245515 L1.14249062,8.58745938 L5.71245309,7.36359344 L5.71245309,12.2726557 Z M26.2772842,7.98912492 L21.7073217,8.94102065 L21.7073217,3.08006263 L26.2772842,1.85619668 L26.2772842,7.98912492 Z M19.4223405,9.41696852 L14.852378,10.3688643 L14.852378,4.91586155 L19.4223405,3.6919956 L19.4223405,9.41696852 Z M12.5673968,10.8448121 L7.99743433,11.7967079 L7.99743433,6.75166046 L12.5673968,5.52779452 L12.5673968,10.8448121 Z M5.71245309,18.4089836 L1.14249062,19.0209166 L1.14249062,14.3838245 L5.71245309,13.4999213 L5.71245309,18.4089836 Z M26.2772842,15.6552852 L21.7073217,16.2672182 L21.7073217,10.4062602 L26.2772842,9.52235698 L26.2772842,15.6552852 Z M19.4223405,16.5731847 L14.852378,17.1851176 L14.852378,11.7321149 L19.4223405,10.8482118 L19.4223405,16.5731847 Z M12.5673968,17.4910841 L7.99743433,18.1030171 L7.99743433,13.0579697 L12.5673968,12.1740665 L12.5673968,17.4910841 Z M5.71245309,24.5453115 L1.14249062,24.8172817 L1.14249062,20.1801896 L5.71245309,19.6362492 L5.71245309,24.5453115 Z M26.2772842,23.3214455 L21.7073217,23.5934157 L21.7073217,17.7324577 L26.2772842,17.1885173 L26.2772842,23.3214455 Z M19.4223405,23.7294008 L14.852378,24.001371 L14.852378,18.5483683 L19.4223405,18.0044279 L19.4223405,23.7294008 Z M12.5673968,24.1373561 L7.99743433,24.4093263 L7.99743433,19.364279 L12.5673968,18.8203385 L12.5673968,24.1373561 Z M5.71245309,30.6816393 L1.14249062,30.6136468 L1.14249062,25.9765547 L5.71245309,25.772577 L5.71245309,30.6816393 Z M26.2772842,30.9876058 L21.7073217,30.9196133 L21.7073217,25.0586552 L26.2772842,24.8546776 L26.2772842,30.9876058 Z M19.4223405,30.885617 L14.852378,30.8176244 L14.852378,25.3646217 L19.4223405,25.1606441 L19.4223405,30.885617 Z M12.5673968,30.7836281 L7.99743433,30.7156356 L7.99743433,25.6705882 L12.5673968,25.4666105 L12.5673968,30.7836281 Z M5.71245309,36.8179672 L1.14249062,36.4100119 L1.14249062,31.7729198 L5.71245309,31.9089049 L5.71245309,36.8179672 Z M26.2772842,38.6537661 L21.7073217,38.2458108 L21.7073217,32.3848528 L26.2772842,32.5208379 L26.2772842,38.6537661 Z M19.4223405,38.0418331 L14.852378,37.6338778 L14.852378,32.1808751 L19.4223405,32.3168602 L19.4223405,38.0418331 Z M12.5673968,37.4299002 L7.99743433,37.0219448 L7.99743433,31.9768974 L12.5673968,32.1128825 L12.5673968,37.4299002 Z M5.71245309,42.954295 L1.14249062,42.206377 L1.14249062,37.5692849 L5.71245309,38.0452328 L5.71245309,42.954295 Z M26.2772842,46.3199264 L21.7073217,45.5720083 L21.7073217,39.7110503 L26.2772842,40.1869982 L26.2772842,46.3199264 Z M19.4223405,45.1980493 L14.852378,44.4501312 L14.852378,38.9971285 L19.4223405,39.4730764 L19.4223405,45.1980493 Z M12.5673968,44.0761722 L7.99743433,43.3282541 L7.99743433,38.2832067 L12.5673968,38.7591546 L12.5673968,44.0761722 Z M5.71245309,49.0906229 L1.14249062,48.0027421 L1.14249062,43.36565 L5.71245309,44.1815606 L5.71245309,49.0906229 Z M26.2772842,53.9860867 L21.7073217,52.8982058 L21.7073217,47.0372478 L26.2772842,47.8531585 L26.2772842,53.9860867 Z M19.4223405,52.3542654 L14.852378,51.2663846 L14.852378,45.8133819 L19.4223405,46.6292925 L19.4223405,52.3542654 Z M12.5673968,50.7224442 L7.99743433,49.6345633 L7.99743433,44.5895159 L12.5673968,45.4054266 L12.5673968,50.7224442 Z" id="Combined-Shape-Copy-2" stroke="none" fill="#EDEDED" fill-rule="evenodd"></path>
                                <path d="M29.082405,5.4197501 L42.308146,11.6108306" id="Path-4" stroke="#EDEDED" stroke-width="0.5" fill="none" stroke-linecap="round" stroke-linejoin="round"></path>
                                <path d="M29.082405,13.1709011 L42.308146,19.3619815" id="Path-4-Copy" stroke="#EDEDED" stroke-width="0.5" fill="none" stroke-linecap="round" stroke-linejoin="round"></path>
                                <path d="M29.082405,14.7211313 L34.1376904,17.0525322" id="Path-4-Copy-2" stroke="#EDEDED" stroke-width="0.5" fill="none" stroke-linecap="round" stroke-linejoin="round"></path>
                            </g>
                        </g>
                        <g id="Group-2-Copy" mask="url(#mask-2)">
                            <g transform="translate(142.757614, 71.310589)">
                                <polygon id="Combined-Shape-Copy" stroke="none" fill="#F6F6F6" fill-rule="evenodd" points="19.855699 43.4064455 0 37.6950711 0 5.71137441 19.855699 0"></polygon>
                                <polygon id="Combined-Shape-Copy-3" stroke="none" fill="#FFFFFF" fill-rule="evenodd" transform="translate(25.850030, 21.703223) scale(-1, 1) translate(-25.850030, -21.703223) " points="31.8450893 43.4064455 19.8549709 37.6950711 19.8549709 5.71137441 31.8450893 0"></polygon>
                                <path d="M19.855699,43.4064455 L0,37.6950711 L0,5.71137441 L19.855699,0 L19.855699,43.4064455 Z M4.13660396,9.04300948 L0.827320793,9.74440634 L0.827320793,6.32760165 L4.13660396,5.42580569 L4.13660396,9.04300948 Z M19.0283782,5.88672362 L15.7190951,6.58812048 L15.7190951,2.26951983 L19.0283782,1.36772387 L19.0283782,5.88672362 Z M14.0644535,6.93881891 L10.7551703,7.64021577 L10.7551703,3.62221377 L14.0644535,2.72041781 L14.0644535,6.93881891 Z M9.10052872,7.9909142 L5.79124555,8.69231105 L5.79124555,4.97490771 L9.10052872,4.07311175 L9.10052872,7.9909142 Z M4.13660396,13.5645142 L0.827320793,14.0154122 L0.827320793,10.5986075 L4.13660396,9.94731043 L4.13660396,13.5645142 Z M19.0283782,11.5354733 L15.7190951,11.9863713 L15.7190951,7.66777065 L19.0283782,7.01647356 L19.0283782,11.5354733 Z M14.0644535,12.2118203 L10.7551703,12.6627183 L10.7551703,8.64471627 L14.0644535,7.99341919 L14.0644535,12.2118203 Z M9.10052872,12.8881673 L5.79124555,13.3390652 L5.79124555,9.62166189 L9.10052872,8.97036481 L9.10052872,12.8881673 Z M4.13660396,18.086019 L0.827320793,18.2864181 L0.827320793,14.8696134 L4.13660396,14.4688152 L4.13660396,18.086019 Z M19.0283782,17.184223 L15.7190951,17.3846221 L15.7190951,13.0660215 L19.0283782,12.6652233 L19.0283782,17.184223 Z M14.0644535,17.4848217 L10.7551703,17.6852208 L10.7551703,13.6672188 L14.0644535,13.2664206 L14.0644535,17.4848217 Z M9.10052872,17.7854203 L5.79124555,17.9858194 L5.79124555,14.2684161 L9.10052872,13.8676179 L9.10052872,17.7854203 Z M4.13660396,22.6075237 L0.827320793,22.5574239 L0.827320793,19.1406192 L4.13660396,18.9903199 L4.13660396,22.6075237 Z M19.0283782,22.8329727 L15.7190951,22.7828729 L15.7190951,18.4642723 L19.0283782,18.3139729 L19.0283782,22.8329727 Z M14.0644535,22.757823 L10.7551703,22.7077233 L10.7551703,18.6897213 L14.0644535,18.5394219 L14.0644535,22.757823 Z M9.10052872,22.6826734 L5.79124555,22.6325736 L5.79124555,18.9151703 L9.10052872,18.7648709 L9.10052872,22.6826734 Z M4.13660396,27.1290285 L0.827320793,26.8284298 L0.827320793,23.4116251 L4.13660396,23.5118247 L4.13660396,27.1290285 Z M19.0283782,28.4817224 L15.7190951,28.1811237 L15.7190951,23.8625231 L19.0283782,23.9627226 L19.0283782,28.4817224 Z M14.0644535,28.0308244 L10.7551703,27.7302258 L10.7551703,23.7122238 L14.0644535,23.8124233 L14.0644535,28.0308244 Z M9.10052872,27.5799264 L5.79124555,27.2793278 L5.79124555,23.5619244 L9.10052872,23.662124 L9.10052872,27.5799264 Z M4.13660396,31.6505332 L0.827320793,31.0994357 L0.827320793,27.682631 L4.13660396,28.0333294 L4.13660396,31.6505332 Z M19.0283782,34.1304721 L15.7190951,33.5793745 L15.7190951,29.2607739 L19.0283782,29.6114723 L19.0283782,34.1304721 Z M14.0644535,33.3038258 L10.7551703,32.7527283 L10.7551703,28.7347263 L14.0644535,29.0854247 L14.0644535,33.3038258 Z M9.10052872,32.4771795 L5.79124555,31.926082 L5.79124555,28.2086786 L9.10052872,28.559377 L9.10052872,32.4771795 Z M4.13660396,36.1720379 L0.827320793,35.3704415 L0.827320793,31.9536368 L4.13660396,32.5548341 L4.13660396,36.1720379 Z M19.0283782,39.7792218 L15.7190951,38.9776254 L15.7190951,34.6590247 L19.0283782,35.260222 L19.0283782,39.7792218 Z M14.0644535,38.5768272 L10.7551703,37.7752308 L10.7551703,33.7572288 L14.0644535,34.3584261 L14.0644535,38.5768272 Z M9.10052872,37.3744325 L5.79124555,36.5728361 L5.79124555,32.8554328 L9.10052872,33.4566301 L9.10052872,37.3744325 Z" id="Combined-Shape-Copy-2" stroke="none" fill="#EDEDED" fill-rule="evenodd"></path>
                                <path d="M21.0596726,3.99350008 L30.6369333,8.55534884" id="Path-4" stroke="#EDEDED" stroke-width="0.5" fill="none" stroke-linecap="round" stroke-linejoin="round"></path>
                                <path d="M21.0596726,9.70487449 L30.6369333,14.2667232" id="Path-4-Copy" stroke="#EDEDED" stroke-width="0.5" fill="none" stroke-linecap="round" stroke-linejoin="round"></path>
                                <path d="M21.0596726,10.8471494 L24.7203965,12.5650237" id="Path-4-Copy-2" stroke="#EDEDED" stroke-width="0.5" fill="none" stroke-linecap="round" stroke-linejoin="round"></path>
                            </g>
                        </g>
                        <path d="M100.085501,199.979695 C155.361197,199.979695 200.171003,155.212716 200.171003,99.9898477 C169.391245,121.839694 132.302776,120.62863 107.483711,115.737076 C82.6646462,110.845521 56.7873319,72.2041214 0,99.9898477 C0,155.212716 44.8098052,199.979695 100.085501,199.979695 Z" id="Mask-Copy-2" fill="#27AA88" mask="url(#mask-2)" transform="translate(100.085501, 145.003691) scale(-1, 1) translate(-100.085501, -145.003691) "></path>
                        <path d="M100.80898,199.888931 C100.80898,199.888931 69.5895906,187.676107 72.9809707,168.087444 C76.3723508,148.49878 108.350635,148.63489 104.579807,130.470326 C100.80898,112.305761 101.841482,114.405912 101.841482,114.405912" id="Path-3" stroke="#FFFFFF" stroke-linecap="round" stroke-linejoin="round" stroke-dasharray="4,5" mask="url(#mask-2)"></path>
                    </g>
                    <g id="Group-3" transform="translate(156.723033, 119.367725)">
                        <ellipse id="Oval" fill="#FFFFFF" cx="32.5859772" cy="24.8036832" rx="12.4137056" ry="12.4018416"></ellipse>
                        <ellipse id="Oval-4" fill="#58CDFF" opacity="0.210879198" cx="33.3618338" cy="72.8608193" rx="33.3618338" ry="7.75115099"></ellipse>
                        <path d="M58.8874624,24.9888687 C58.8874624,25.4789469 58.8755066,25.9445077 58.8509658,26.3854613 C58.8264249,26.826415 58.7894788,27.2916165 58.7403972,27.7816947 C58.2990217,31.8486162 57.4039555,35.7563095 56.0551984,39.5043255 C54.7068009,43.2527007 53.0023366,46.8541513 50.9425245,50.3085873 C48.8827125,53.7626641 46.5040493,57.0823893 43.8065352,60.2674036 C41.109021,63.4520587 38.1909989,66.5146656 35.0521092,69.4544163 C34.6107338,69.9932599 34.0463845,70.2626816 33.3599602,70.2626816 C32.6241847,70.2626816 32.035744,69.9932598 31.5942787,69.4544163 C28.455389,66.5146656 25.5251414,63.4275413 22.8029966,60.1937616 C20.0809416,56.959982 17.6777376,53.5792777 15.5932948,50.0511098 C13.508942,46.5233911 11.7925218,42.8608716 10.4437648,39.0633719 C9.09500768,35.2662313 8.22457211,31.3094135 7.83227832,27.1937266 C7.83227832,26.8018975 7.82005287,26.4342267 7.79542215,26.0915221 C7.77088131,25.7483686 7.75856599,25.3806977 7.75856599,24.9888687 C7.75856599,21.5590399 8.43276475,18.3252602 9.78152183,15.2872604 C11.1302789,12.2496197 12.9572676,9.603449 15.2625779,7.34982576 C17.5674388,5.09584331 20.2772683,3.30742161 23.3915272,1.98456074 C26.505876,0.66161008 29.8287769,0 33.3599602,0 C36.8910537,0 40.2016393,0.66161008 43.2913573,1.98456074 C46.3810754,3.30742161 49.0785896,5.09584324 51.38381,7.34982576 C53.6887606,9.603449 55.5157494,12.2496197 56.8645064,15.2872604 C58.2132637,18.3252602 58.8874624,21.5590398 58.8874624,24.9888687 L58.8874624,24.9888687 L58.8874624,24.9888687 Z M33.3599603,36.4543813 C34.978307,36.4543813 36.49876,36.1481385 37.9209598,35.535653 C39.3434293,34.9230777 40.5816178,34.1025987 41.6360647,33.0736769 C42.6905115,32.044396 43.5245403,30.831998 44.1376117,29.4354054 C44.7503235,28.0388128 45.0569491,26.5566338 45.0569491,24.9888686 C45.0569491,23.4207441 44.7504135,21.9385652 44.1376117,20.5423318 C43.5245403,19.145829 42.6905115,17.9330719 41.6360647,16.9041501 C40.5816178,15.8751386 39.3434293,15.0546595 37.9209598,14.442174 C36.4988499,13.8295987 34.9783968,13.523356 33.3599603,13.523356 C31.7415237,13.523356 30.2210707,13.8295987 28.7989608,14.442174 C27.3764015,15.0546594 26.1259875,15.8752283 25.04691,16.9041501 C23.9678324,17.9330718 23.1219377,19.145829 22.5088662,20.5423318 C21.8957949,21.9385652 21.5891692,23.4207441 21.5891692,24.9888686 C21.5891692,26.5566339 21.8957949,28.0388128 22.5088662,29.4354054 C23.1219376,30.831998 23.9678323,32.044396 25.04691,33.0736769 C26.1259875,34.1025986 27.3764015,34.9230777 28.7989608,35.535653 C30.2210707,36.1481385 31.7415237,36.4543813 33.3599603,36.4543813 L33.3599603,36.4543813 L33.3599603,36.4543813 Z" id="Shape" fill="#FFCE00"></path>
                    </g>
                </g>
            </g>
        </g>
    </g>
</svg>